<mxfile host="65bd71144e">
    <diagram name="Page-1" id="1ypT_SWatBclGwmzUPJq">
        <mxGraphModel dx="3315" dy="2103" grid="1" gridSize="10" guides="1" tooltips="1" connect="1" arrows="1" fold="1" page="1" pageScale="1" pageWidth="850" pageHeight="1100" math="0" shadow="0">
            <root>
                <mxCell id="0"/>
                <mxCell id="1" parent="0"/>
                <mxCell id="ouVnCRUU9fuZ-RV7Fy0K-13" style="edgeStyle=none;shape=link;html=1;exitX=0;exitY=1;exitDx=0;exitDy=0;endArrow=none;endFill=0;entryX=0.5;entryY=0;entryDx=0;entryDy=0;" parent="1" source="ouVnCRUU9fuZ-RV7Fy0K-11" target="KuFMbSMzIT9IbyiOjsOX-797" edge="1">
                    <mxGeometry relative="1" as="geometry">
                        <mxPoint x="675" y="237.49999999999977" as="sourcePoint"/>
                        <mxPoint x="550" y="120.63999999999999" as="targetPoint"/>
                    </mxGeometry>
                </mxCell>
                <mxCell id="ouVnCRUU9fuZ-RV7Fy0K-7" style="edgeStyle=none;shape=link;html=1;exitX=1;exitY=1;exitDx=0;exitDy=0;endArrow=none;endFill=0;" parent="1" source="ouVnCRUU9fuZ-RV7Fy0K-6" edge="1">
                    <mxGeometry relative="1" as="geometry">
                        <mxPoint x="130" y="209.99999999999983" as="sourcePoint"/>
                        <mxPoint x="440" y="410" as="targetPoint"/>
                    </mxGeometry>
                </mxCell>
                <mxCell id="KuFMbSMzIT9IbyiOjsOX-648" style="edgeStyle=none;html=1;exitX=1;exitY=0.5;exitDx=0;exitDy=0;entryX=0;entryY=0.5;entryDx=0;entryDy=0;fontSize=18;endArrow=none;endFill=0;" parent="1" source="KuFMbSMzIT9IbyiOjsOX-649" edge="1">
                    <mxGeometry relative="1" as="geometry">
                        <mxPoint x="410" y="85" as="targetPoint"/>
                    </mxGeometry>
                </mxCell>
                <mxCell id="KuFMbSMzIT9IbyiOjsOX-649" value="&lt;b&gt;&lt;font style=&quot;font-size: 18px;&quot;&gt;Branch&lt;/font&gt;&lt;/b&gt;" style="rounded=0;whiteSpace=wrap;html=1;fillColor=#FF9933;" parent="1" vertex="1">
                    <mxGeometry x="-9" y="60" width="100" height="50" as="geometry"/>
                </mxCell>
                <mxCell id="KuFMbSMzIT9IbyiOjsOX-650" value="&lt;u&gt;Branch_Id&lt;/u&gt;" style="ellipse;whiteSpace=wrap;html=1;" parent="1" vertex="1">
                    <mxGeometry x="-50" y="-40" width="90" height="50" as="geometry"/>
                </mxCell>
                <mxCell id="KuFMbSMzIT9IbyiOjsOX-651" value="" style="endArrow=none;html=1;entryX=0.419;entryY=1.027;entryDx=0;entryDy=0;entryPerimeter=0;exitX=0.404;exitY=-0.022;exitDx=0;exitDy=0;exitPerimeter=0;" parent="1" source="KuFMbSMzIT9IbyiOjsOX-649" target="KuFMbSMzIT9IbyiOjsOX-650" edge="1">
                    <mxGeometry width="50" height="50" relative="1" as="geometry">
                        <mxPoint x="-10" y="70" as="sourcePoint"/>
                        <mxPoint x="40" y="20" as="targetPoint"/>
                    </mxGeometry>
                </mxCell>
                <mxCell id="KuFMbSMzIT9IbyiOjsOX-652" value="" style="endArrow=none;html=1;exitX=0.75;exitY=0;exitDx=0;exitDy=0;" parent="1" source="KuFMbSMzIT9IbyiOjsOX-649" edge="1">
                    <mxGeometry width="50" height="50" relative="1" as="geometry">
                        <mxPoint x="30" y="60" as="sourcePoint"/>
                        <mxPoint x="66.5465441200738" y="8.834838231896583" as="targetPoint"/>
                    </mxGeometry>
                </mxCell>
                <mxCell id="KuFMbSMzIT9IbyiOjsOX-653" value="Branch_Name" style="ellipse;whiteSpace=wrap;html=1;" parent="1" vertex="1">
                    <mxGeometry x="50" y="-30" width="90" height="50" as="geometry"/>
                </mxCell>
                <mxCell id="KuFMbSMzIT9IbyiOjsOX-654" style="edgeStyle=none;html=1;exitX=0.25;exitY=1;exitDx=0;exitDy=0;entryX=1;entryY=0;entryDx=0;entryDy=0;fontSize=18;endArrow=none;endFill=0;" parent="1" target="KuFMbSMzIT9IbyiOjsOX-711" edge="1">
                    <mxGeometry relative="1" as="geometry">
                        <mxPoint x="747.5" y="110" as="sourcePoint"/>
                    </mxGeometry>
                </mxCell>
                <mxCell id="KuFMbSMzIT9IbyiOjsOX-656" style="edgeStyle=none;html=1;exitX=0.25;exitY=1;exitDx=0;exitDy=0;fontSize=18;endArrow=none;endFill=0;shape=link;entryX=0.5;entryY=0;entryDx=0;entryDy=0;" parent="1" source="KuFMbSMzIT9IbyiOjsOX-660" target="KuFMbSMzIT9IbyiOjsOX-723" edge="1">
                    <mxGeometry relative="1" as="geometry">
                        <mxPoint x="-35.73835997220294" y="494.818359972203" as="targetPoint"/>
                    </mxGeometry>
                </mxCell>
                <mxCell id="KuFMbSMzIT9IbyiOjsOX-657" style="edgeStyle=none;html=1;exitX=1;exitY=0.5;exitDx=0;exitDy=0;entryX=0;entryY=0;entryDx=0;entryDy=0;fontSize=18;endArrow=none;endFill=0;" parent="1" source="KuFMbSMzIT9IbyiOjsOX-660" target="KuFMbSMzIT9IbyiOjsOX-675" edge="1">
                    <mxGeometry relative="1" as="geometry"/>
                </mxCell>
                <mxCell id="KuFMbSMzIT9IbyiOjsOX-658" style="edgeStyle=none;html=1;exitX=0;exitY=1;exitDx=0;exitDy=0;entryX=0.5;entryY=0;entryDx=0;entryDy=0;fontSize=18;endArrow=none;endFill=0;shape=link;" parent="1" source="KuFMbSMzIT9IbyiOjsOX-660" target="KuFMbSMzIT9IbyiOjsOX-724" edge="1">
                    <mxGeometry relative="1" as="geometry"/>
                </mxCell>
                <mxCell id="KuFMbSMzIT9IbyiOjsOX-659" style="edgeStyle=none;html=1;exitX=0;exitY=0.75;exitDx=0;exitDy=0;entryX=1;entryY=0.5;entryDx=0;entryDy=0;endArrow=none;endFill=0;" parent="1" source="KuFMbSMzIT9IbyiOjsOX-660" target="KuFMbSMzIT9IbyiOjsOX-795" edge="1">
                    <mxGeometry relative="1" as="geometry"/>
                </mxCell>
                <mxCell id="KuFMbSMzIT9IbyiOjsOX-660" value="&lt;font style=&quot;font-size: 18px;&quot;&gt;&lt;b&gt;Student&lt;/b&gt;&lt;/font&gt;" style="rounded=0;whiteSpace=wrap;html=1;fillColor=#FF9933;" parent="1" vertex="1">
                    <mxGeometry x="-70" y="345.18000000000006" width="130" height="50" as="geometry"/>
                </mxCell>
                <mxCell id="KuFMbSMzIT9IbyiOjsOX-661" value="st_fname" style="ellipse;whiteSpace=wrap;html=1;" parent="1" vertex="1">
                    <mxGeometry x="-71" y="245.18000000000004" width="90" height="50" as="geometry"/>
                </mxCell>
                <mxCell id="KuFMbSMzIT9IbyiOjsOX-662" value="" style="endArrow=none;html=1;entryX=0.419;entryY=1.027;entryDx=0;entryDy=0;entryPerimeter=0;exitX=0.404;exitY=-0.022;exitDx=0;exitDy=0;exitPerimeter=0;" parent="1" source="KuFMbSMzIT9IbyiOjsOX-660" target="KuFMbSMzIT9IbyiOjsOX-661" edge="1">
                    <mxGeometry width="50" height="50" relative="1" as="geometry">
                        <mxPoint x="-31" y="355.18000000000006" as="sourcePoint"/>
                        <mxPoint x="19" y="305.18000000000006" as="targetPoint"/>
                    </mxGeometry>
                </mxCell>
                <mxCell id="KuFMbSMzIT9IbyiOjsOX-663" value="" style="endArrow=none;html=1;" parent="1" edge="1">
                    <mxGeometry width="50" height="50" relative="1" as="geometry">
                        <mxPoint x="9" y="345.18000000000006" as="sourcePoint"/>
                        <mxPoint x="45.54654412007358" y="294.01483823189665" as="targetPoint"/>
                    </mxGeometry>
                </mxCell>
                <mxCell id="KuFMbSMzIT9IbyiOjsOX-664" value="&lt;u&gt;SSN&lt;/u&gt;" style="ellipse;whiteSpace=wrap;html=1;" parent="1" vertex="1">
                    <mxGeometry x="29" y="255.18000000000004" width="90" height="50" as="geometry"/>
                </mxCell>
                <mxCell id="KuFMbSMzIT9IbyiOjsOX-665" value="" style="endArrow=none;html=1;exitX=1;exitY=0.25;exitDx=0;exitDy=0;entryX=0;entryY=0.5;entryDx=0;entryDy=0;" parent="1" source="KuFMbSMzIT9IbyiOjsOX-660" target="KuFMbSMzIT9IbyiOjsOX-666" edge="1">
                    <mxGeometry width="50" height="50" relative="1" as="geometry">
                        <mxPoint x="99" y="385.18000000000006" as="sourcePoint"/>
                        <mxPoint x="135.54654412007358" y="334.01483823189665" as="targetPoint"/>
                    </mxGeometry>
                </mxCell>
                <mxCell id="KuFMbSMzIT9IbyiOjsOX-666" value="st_lname" style="ellipse;whiteSpace=wrap;html=1;" parent="1" vertex="1">
                    <mxGeometry x="130" y="324.08000000000004" width="90" height="50" as="geometry"/>
                </mxCell>
                <mxCell id="KuFMbSMzIT9IbyiOjsOX-667" value="st_email" style="ellipse;whiteSpace=wrap;html=1;" parent="1" vertex="1">
                    <mxGeometry x="-171" y="246.28000000000006" width="90" height="50" as="geometry"/>
                </mxCell>
                <mxCell id="KuFMbSMzIT9IbyiOjsOX-668" value="" style="endArrow=none;html=1;entryX=0.5;entryY=1;entryDx=0;entryDy=0;exitX=0.25;exitY=0;exitDx=0;exitDy=0;" parent="1" source="KuFMbSMzIT9IbyiOjsOX-660" target="KuFMbSMzIT9IbyiOjsOX-667" edge="1">
                    <mxGeometry width="50" height="50" relative="1" as="geometry">
                        <mxPoint x="-104.63999999999987" y="345.1800000000002" as="sourcePoint"/>
                        <mxPoint x="-81" y="306.2800000000001" as="targetPoint"/>
                    </mxGeometry>
                </mxCell>
                <mxCell id="KuFMbSMzIT9IbyiOjsOX-669" value="" style="endArrow=none;html=1;exitX=0;exitY=0;exitDx=0;exitDy=0;entryX=0.5;entryY=1;entryDx=0;entryDy=0;" parent="1" source="KuFMbSMzIT9IbyiOjsOX-660" target="KuFMbSMzIT9IbyiOjsOX-670" edge="1">
                    <mxGeometry width="50" height="50" relative="1" as="geometry">
                        <mxPoint x="-331" y="351.43000000000006" as="sourcePoint"/>
                        <mxPoint x="-244.45345587992642" y="327.76483823189665" as="targetPoint"/>
                    </mxGeometry>
                </mxCell>
                <mxCell id="KuFMbSMzIT9IbyiOjsOX-670" value="st_birthdate" style="ellipse;whiteSpace=wrap;html=1;" parent="1" vertex="1">
                    <mxGeometry x="-271" y="255.18000000000004" width="90" height="50" as="geometry"/>
                </mxCell>
                <mxCell id="KuFMbSMzIT9IbyiOjsOX-671" value="st_phone" style="ellipse;whiteSpace=wrap;html=1;" parent="1" vertex="1">
                    <mxGeometry x="-351" y="296.2800000000001" width="90" height="50" as="geometry"/>
                </mxCell>
                <mxCell id="KuFMbSMzIT9IbyiOjsOX-672" value="" style="endArrow=none;html=1;exitX=0;exitY=0.5;exitDx=0;exitDy=0;entryX=1;entryY=1;entryDx=0;entryDy=0;" parent="1" source="KuFMbSMzIT9IbyiOjsOX-660" target="KuFMbSMzIT9IbyiOjsOX-671" edge="1">
                    <mxGeometry width="50" height="50" relative="1" as="geometry">
                        <mxPoint x="-391" y="377.68000000000006" as="sourcePoint"/>
                        <mxPoint x="-304.4534558799264" y="354.01483823189665" as="targetPoint"/>
                    </mxGeometry>
                </mxCell>
                <mxCell id="KuFMbSMzIT9IbyiOjsOX-673" value="st_gender" style="ellipse;whiteSpace=wrap;html=1;" parent="1" vertex="1">
                    <mxGeometry x="-360" y="355.18000000000006" width="90" height="50" as="geometry"/>
                </mxCell>
                <mxCell id="KuFMbSMzIT9IbyiOjsOX-674" value="" style="endArrow=none;html=1;exitX=0;exitY=0.5;exitDx=0;exitDy=0;entryX=0.5;entryY=1;entryDx=0;entryDy=0;" parent="1" source="KuFMbSMzIT9IbyiOjsOX-660" target="KuFMbSMzIT9IbyiOjsOX-673" edge="1">
                    <mxGeometry width="50" height="50" relative="1" as="geometry">
                        <mxPoint x="-431" y="417.68000000000006" as="sourcePoint"/>
                        <mxPoint x="-344.4534558799264" y="394.01483823189665" as="targetPoint"/>
                    </mxGeometry>
                </mxCell>
                <mxCell id="KuFMbSMzIT9IbyiOjsOX-675" value="st_age" style="ellipse;whiteSpace=wrap;html=1;dashed=1;" parent="1" vertex="1">
                    <mxGeometry x="160" y="381.2800000000001" width="90" height="50" as="geometry"/>
                </mxCell>
                <mxCell id="KuFMbSMzIT9IbyiOjsOX-676" value="St_Address" style="ellipse;whiteSpace=wrap;html=1;" parent="1" vertex="1">
                    <mxGeometry x="44" y="411.18000000000006" width="90" height="50" as="geometry"/>
                </mxCell>
                <mxCell id="KuFMbSMzIT9IbyiOjsOX-677" value="" style="endArrow=none;html=1;entryX=0.75;entryY=1;entryDx=0;entryDy=0;" parent="1" source="KuFMbSMzIT9IbyiOjsOX-676" target="KuFMbSMzIT9IbyiOjsOX-660" edge="1">
                    <mxGeometry width="50" height="50" relative="1" as="geometry">
                        <mxPoint y="445.18000000000006" as="sourcePoint"/>
                        <mxPoint x="50" y="395.18000000000006" as="targetPoint"/>
                    </mxGeometry>
                </mxCell>
                <mxCell id="KuFMbSMzIT9IbyiOjsOX-678" value="&lt;b&gt;&lt;font style=&quot;font-size: 18px;&quot;&gt;Course&lt;/font&gt;&lt;/b&gt;" style="rounded=0;whiteSpace=wrap;html=1;fillColor=#FF9933;" parent="1" vertex="1">
                    <mxGeometry x="1184" y="405" width="160" height="50" as="geometry"/>
                </mxCell>
                <mxCell id="KuFMbSMzIT9IbyiOjsOX-679" value="&lt;u&gt;Crs_Id&lt;/u&gt;" style="ellipse;whiteSpace=wrap;html=1;" parent="1" vertex="1">
                    <mxGeometry x="1130" y="300" width="90" height="50" as="geometry"/>
                </mxCell>
                <mxCell id="KuFMbSMzIT9IbyiOjsOX-680" value="" style="endArrow=none;html=1;entryX=0.419;entryY=1.027;entryDx=0;entryDy=0;entryPerimeter=0;exitX=0.404;exitY=-0.022;exitDx=0;exitDy=0;exitPerimeter=0;" parent="1" source="KuFMbSMzIT9IbyiOjsOX-678" target="KuFMbSMzIT9IbyiOjsOX-679" edge="1">
                    <mxGeometry width="50" height="50" relative="1" as="geometry">
                        <mxPoint x="1222.5" y="400" as="sourcePoint"/>
                        <mxPoint x="1272.5" y="350" as="targetPoint"/>
                    </mxGeometry>
                </mxCell>
                <mxCell id="KuFMbSMzIT9IbyiOjsOX-681" style="edgeStyle=none;html=1;exitX=0.5;exitY=1;exitDx=0;exitDy=0;entryX=0.75;entryY=0;entryDx=0;entryDy=0;fontSize=18;endArrow=none;endFill=0;" parent="1" source="KuFMbSMzIT9IbyiOjsOX-682" target="KuFMbSMzIT9IbyiOjsOX-678" edge="1">
                    <mxGeometry relative="1" as="geometry"/>
                </mxCell>
                <mxCell id="KuFMbSMzIT9IbyiOjsOX-682" value="Crs_Name" style="ellipse;whiteSpace=wrap;html=1;" parent="1" vertex="1">
                    <mxGeometry x="1315" y="290" width="90" height="50" as="geometry"/>
                </mxCell>
                <mxCell id="KuFMbSMzIT9IbyiOjsOX-683" value="&lt;b&gt;&lt;font style=&quot;font-size: 18px;&quot;&gt;Topic&lt;/font&gt;&lt;/b&gt;" style="rounded=0;whiteSpace=wrap;html=1;fillColor=#FF9933;" parent="1" vertex="1">
                    <mxGeometry x="1044" y="661.1" width="150" height="50" as="geometry"/>
                </mxCell>
                <mxCell id="KuFMbSMzIT9IbyiOjsOX-684" style="edgeStyle=none;html=1;exitX=0.5;exitY=1;exitDx=0;exitDy=0;endArrow=none;endFill=0;" parent="1" source="KuFMbSMzIT9IbyiOjsOX-685" target="KuFMbSMzIT9IbyiOjsOX-683" edge="1">
                    <mxGeometry relative="1" as="geometry"/>
                </mxCell>
                <mxCell id="KuFMbSMzIT9IbyiOjsOX-685" value="&lt;u&gt;Topic_Id&lt;/u&gt;" style="ellipse;whiteSpace=wrap;html=1;" parent="1" vertex="1">
                    <mxGeometry x="960" y="561.1" width="90" height="50" as="geometry"/>
                </mxCell>
                <mxCell id="KuFMbSMzIT9IbyiOjsOX-686" value="" style="endArrow=none;html=1;startArrow=none;" parent="1" source="KuFMbSMzIT9IbyiOjsOX-687" edge="1">
                    <mxGeometry width="50" height="50" relative="1" as="geometry">
                        <mxPoint x="1145" y="661.1" as="sourcePoint"/>
                        <mxPoint x="1181.546544120074" y="609.9348382318966" as="targetPoint"/>
                    </mxGeometry>
                </mxCell>
                <mxCell id="KuFMbSMzIT9IbyiOjsOX-688" style="edgeStyle=none;html=1;exitX=0;exitY=0.5;exitDx=0;exitDy=0;entryX=1;entryY=0.5;entryDx=0;entryDy=0;fontSize=18;endArrow=none;endFill=0;shape=link;" parent="1" source="KuFMbSMzIT9IbyiOjsOX-690" target="KuFMbSMzIT9IbyiOjsOX-724" edge="1">
                    <mxGeometry relative="1" as="geometry"/>
                </mxCell>
                <mxCell id="KuFMbSMzIT9IbyiOjsOX-689" style="edgeStyle=none;shape=link;html=1;exitX=0;exitY=1;exitDx=0;exitDy=0;entryX=1;entryY=0.5;entryDx=0;entryDy=0;fontSize=18;endArrow=none;endFill=0;" parent="1" source="KuFMbSMzIT9IbyiOjsOX-690" target="KuFMbSMzIT9IbyiOjsOX-784" edge="1">
                    <mxGeometry relative="1" as="geometry"/>
                </mxCell>
                <mxCell id="KuFMbSMzIT9IbyiOjsOX-690" value="&lt;b&gt;&lt;font style=&quot;font-size: 18px;&quot;&gt;Exam&lt;/font&gt;&lt;/b&gt;" style="rounded=0;whiteSpace=wrap;html=1;fillColor=#FF9933;" parent="1" vertex="1">
                    <mxGeometry x="460" y="847.5" width="160" height="50" as="geometry"/>
                </mxCell>
                <mxCell id="KuFMbSMzIT9IbyiOjsOX-691" value="&lt;u&gt;Exam_Id&lt;/u&gt;" style="ellipse;whiteSpace=wrap;html=1;" parent="1" vertex="1">
                    <mxGeometry x="397" y="720" width="90" height="50" as="geometry"/>
                </mxCell>
                <mxCell id="KuFMbSMzIT9IbyiOjsOX-692" value="" style="endArrow=none;html=1;entryX=0.419;entryY=1.027;entryDx=0;entryDy=0;entryPerimeter=0;exitX=0.404;exitY=-0.022;exitDx=0;exitDy=0;exitPerimeter=0;" parent="1" source="KuFMbSMzIT9IbyiOjsOX-690" target="KuFMbSMzIT9IbyiOjsOX-691" edge="1">
                    <mxGeometry width="50" height="50" relative="1" as="geometry">
                        <mxPoint x="507.5" y="875" as="sourcePoint"/>
                        <mxPoint x="557.5" y="825" as="targetPoint"/>
                    </mxGeometry>
                </mxCell>
                <mxCell id="KuFMbSMzIT9IbyiOjsOX-693" style="edgeStyle=none;html=1;exitX=0.5;exitY=1;exitDx=0;exitDy=0;fontSize=18;endArrow=none;endFill=0;entryX=1;entryY=0;entryDx=0;entryDy=0;" parent="1" source="KuFMbSMzIT9IbyiOjsOX-694" target="KuFMbSMzIT9IbyiOjsOX-690" edge="1">
                    <mxGeometry relative="1" as="geometry">
                        <mxPoint x="630" y="865" as="targetPoint"/>
                    </mxGeometry>
                </mxCell>
                <mxCell id="KuFMbSMzIT9IbyiOjsOX-694" value="Exam_Name" style="ellipse;whiteSpace=wrap;html=1;" parent="1" vertex="1">
                    <mxGeometry x="645" y="755" width="90" height="50" as="geometry"/>
                </mxCell>
                <mxCell id="KuFMbSMzIT9IbyiOjsOX-695" style="edgeStyle=none;html=1;exitX=0.5;exitY=1;exitDx=0;exitDy=0;entryX=0.563;entryY=-0.038;entryDx=0;entryDy=0;entryPerimeter=0;fontSize=18;endArrow=none;endFill=0;" parent="1" source="KuFMbSMzIT9IbyiOjsOX-696" target="KuFMbSMzIT9IbyiOjsOX-690" edge="1">
                    <mxGeometry relative="1" as="geometry"/>
                </mxCell>
                <mxCell id="KuFMbSMzIT9IbyiOjsOX-696" value="Exam_Date" style="ellipse;whiteSpace=wrap;html=1;" parent="1" vertex="1">
                    <mxGeometry x="489" y="740" width="90" height="50" as="geometry"/>
                </mxCell>
                <mxCell id="KuFMbSMzIT9IbyiOjsOX-697" style="edgeStyle=none;html=1;exitX=0.5;exitY=1;exitDx=0;exitDy=0;entryX=0.75;entryY=0;entryDx=0;entryDy=0;fontSize=18;endArrow=none;endFill=0;" parent="1" source="KuFMbSMzIT9IbyiOjsOX-698" target="KuFMbSMzIT9IbyiOjsOX-690" edge="1">
                    <mxGeometry relative="1" as="geometry"/>
                </mxCell>
                <mxCell id="KuFMbSMzIT9IbyiOjsOX-698" value="Duration" style="ellipse;whiteSpace=wrap;html=1;" parent="1" vertex="1">
                    <mxGeometry x="555" y="785" width="90" height="50" as="geometry"/>
                </mxCell>
                <mxCell id="KuFMbSMzIT9IbyiOjsOX-700" value="&lt;b&gt;&lt;font style=&quot;font-size: 18px;&quot;&gt;Questions&lt;/font&gt;&lt;/b&gt;" style="rounded=0;whiteSpace=wrap;html=1;fillColor=#FF9933;" parent="1" vertex="1">
                    <mxGeometry x="-141" y="1060" width="160" height="50" as="geometry"/>
                </mxCell>
                <mxCell id="KuFMbSMzIT9IbyiOjsOX-701" value="&lt;u&gt;Ques_Id&lt;/u&gt;" style="ellipse;whiteSpace=wrap;html=1;" parent="1" vertex="1">
                    <mxGeometry x="-260" y="975" width="90" height="50" as="geometry"/>
                </mxCell>
                <mxCell id="KuFMbSMzIT9IbyiOjsOX-702" value="" style="endArrow=none;html=1;entryX=0.419;entryY=1.027;entryDx=0;entryDy=0;entryPerimeter=0;exitX=0.404;exitY=-0.022;exitDx=0;exitDy=0;exitPerimeter=0;" parent="1" edge="1">
                    <mxGeometry width="50" height="50" relative="1" as="geometry">
                        <mxPoint x="-70.00000000000013" y="1060" as="sourcePoint"/>
                        <mxPoint x="-215.92999999999995" y="1027.4499999999998" as="targetPoint"/>
                    </mxGeometry>
                </mxCell>
                <mxCell id="KuFMbSMzIT9IbyiOjsOX-703" value="Type" style="ellipse;whiteSpace=wrap;html=1;" parent="1" vertex="1">
                    <mxGeometry x="10" y="1150" width="90" height="40" as="geometry"/>
                </mxCell>
                <mxCell id="KuFMbSMzIT9IbyiOjsOX-704" style="edgeStyle=none;html=1;exitX=0.5;exitY=1;exitDx=0;exitDy=0;entryX=0.563;entryY=-0.038;entryDx=0;entryDy=0;entryPerimeter=0;fontSize=18;endArrow=none;endFill=0;" parent="1" source="KuFMbSMzIT9IbyiOjsOX-705" target="KuFMbSMzIT9IbyiOjsOX-700" edge="1">
                    <mxGeometry relative="1" as="geometry"/>
                </mxCell>
                <mxCell id="KuFMbSMzIT9IbyiOjsOX-705" value="Ques_Name" style="ellipse;whiteSpace=wrap;html=1;" parent="1" vertex="1">
                    <mxGeometry x="-153" y="944" width="90" height="50" as="geometry"/>
                </mxCell>
                <mxCell id="KuFMbSMzIT9IbyiOjsOX-706" style="edgeStyle=none;html=1;exitX=0.5;exitY=1;exitDx=0;exitDy=0;entryX=0.75;entryY=0;entryDx=0;entryDy=0;fontSize=18;endArrow=none;endFill=0;" parent="1" source="KuFMbSMzIT9IbyiOjsOX-707" target="KuFMbSMzIT9IbyiOjsOX-700" edge="1">
                    <mxGeometry relative="1" as="geometry"/>
                </mxCell>
                <mxCell id="KuFMbSMzIT9IbyiOjsOX-707" value="Model&lt;br&gt;Answer" style="ellipse;whiteSpace=wrap;html=1;" parent="1" vertex="1">
                    <mxGeometry x="-52" y="950" width="90" height="50" as="geometry"/>
                </mxCell>
                <mxCell id="KuFMbSMzIT9IbyiOjsOX-708" style="edgeStyle=none;html=1;exitX=0.5;exitY=1;exitDx=0;exitDy=0;fontSize=12;endArrow=none;endFill=0;entryX=0.5;entryY=0.1;entryDx=0;entryDy=0;entryPerimeter=0;" parent="1" edge="1">
                    <mxGeometry relative="1" as="geometry">
                        <mxPoint x="-70" y="1060" as="targetPoint"/>
                        <mxPoint x="-240" y="925" as="sourcePoint"/>
                    </mxGeometry>
                </mxCell>
                <mxCell id="KuFMbSMzIT9IbyiOjsOX-710" style="edgeStyle=none;shape=link;html=1;exitX=0;exitY=1;exitDx=0;exitDy=0;entryX=1;entryY=0;entryDx=0;entryDy=0;fontSize=18;endArrow=none;endFill=0;" parent="1" source="KuFMbSMzIT9IbyiOjsOX-711" target="KuFMbSMzIT9IbyiOjsOX-660" edge="1">
                    <mxGeometry relative="1" as="geometry"/>
                </mxCell>
                <mxCell id="KuFMbSMzIT9IbyiOjsOX-711" value="&lt;span style=&quot;font-size: 18px;&quot;&gt;&lt;b&gt;Contain&lt;/b&gt;&lt;/span&gt;" style="rhombus;whiteSpace=wrap;html=1;fontSize=12;fillColor=#FF0000;" parent="1" vertex="1">
                    <mxGeometry x="330" y="145" width="90" height="80" as="geometry"/>
                </mxCell>
                <mxCell id="KuFMbSMzIT9IbyiOjsOX-712" value="&lt;b&gt;1&lt;/b&gt;" style="text;html=1;align=center;verticalAlign=middle;resizable=0;points=[];autosize=1;strokeColor=none;fillColor=none;fontSize=18;" parent="1" vertex="1">
                    <mxGeometry x="389" y="127" width="30" height="40" as="geometry"/>
                </mxCell>
                <mxCell id="KuFMbSMzIT9IbyiOjsOX-713" value="&lt;b&gt;M&lt;/b&gt;" style="text;html=1;align=center;verticalAlign=middle;resizable=0;points=[];autosize=1;strokeColor=none;fillColor=none;fontSize=18;" parent="1" vertex="1">
                    <mxGeometry x="295" y="183" width="40" height="40" as="geometry"/>
                </mxCell>
                <mxCell id="KuFMbSMzIT9IbyiOjsOX-714" value="&lt;b&gt;Manage&lt;/b&gt;" style="rhombus;whiteSpace=wrap;html=1;fontSize=18;fillColor=#FF0000;" parent="1" vertex="1">
                    <mxGeometry x="950" y="140" width="85" height="85" as="geometry"/>
                </mxCell>
                <mxCell id="KuFMbSMzIT9IbyiOjsOX-715" style="edgeStyle=none;shape=link;html=1;exitX=0.5;exitY=1;exitDx=0;exitDy=0;entryX=0.5;entryY=0;entryDx=0;entryDy=0;fontSize=18;endArrow=none;endFill=0;" parent="1" source="KuFMbSMzIT9IbyiOjsOX-716" target="KuFMbSMzIT9IbyiOjsOX-678" edge="1">
                    <mxGeometry relative="1" as="geometry"/>
                </mxCell>
                <mxCell id="KuFMbSMzIT9IbyiOjsOX-716" value="&lt;b&gt;Teach&lt;/b&gt;" style="rhombus;whiteSpace=wrap;html=1;fontSize=18;fillColor=#FF0000;" parent="1" vertex="1">
                    <mxGeometry x="1220" y="200" width="85" height="85" as="geometry"/>
                </mxCell>
                <mxCell id="KuFMbSMzIT9IbyiOjsOX-717" value="&lt;b&gt;M&lt;/b&gt;" style="text;html=1;align=center;verticalAlign=middle;resizable=0;points=[];autosize=1;strokeColor=none;fillColor=none;fontSize=18;" parent="1" vertex="1">
                    <mxGeometry x="1267" y="276" width="40" height="40" as="geometry"/>
                </mxCell>
                <mxCell id="KuFMbSMzIT9IbyiOjsOX-722" style="edgeStyle=none;html=1;exitX=1;exitY=0.5;exitDx=0;exitDy=0;entryX=0;entryY=0.5;entryDx=0;entryDy=0;fontSize=18;endArrow=none;endFill=0;shape=link;" parent="1" source="KuFMbSMzIT9IbyiOjsOX-723" target="KuFMbSMzIT9IbyiOjsOX-678" edge="1">
                    <mxGeometry relative="1" as="geometry"/>
                </mxCell>
                <mxCell id="KuFMbSMzIT9IbyiOjsOX-723" value="&lt;b style=&quot;border-color: var(--border-color);&quot;&gt;Register&lt;/b&gt;" style="rhombus;whiteSpace=wrap;html=1;fontSize=18;fillColor=#FF0000;" parent="1" vertex="1">
                    <mxGeometry x="-40" y="750" width="97.5" height="85" as="geometry"/>
                </mxCell>
                <mxCell id="KuFMbSMzIT9IbyiOjsOX-724" value="&lt;b style=&quot;border-color: var(--border-color);&quot;&gt;Attend&lt;/b&gt;" style="rhombus;whiteSpace=wrap;html=1;fontSize=18;fillColor=#FF0000;" parent="1" vertex="1">
                    <mxGeometry x="-190" y="830" width="85" height="85" as="geometry"/>
                </mxCell>
                <mxCell id="KuFMbSMzIT9IbyiOjsOX-725" value="M" style="text;html=1;align=center;verticalAlign=middle;resizable=0;points=[];autosize=1;strokeColor=none;fillColor=none;fontSize=18;fontStyle=1" parent="1" vertex="1">
                    <mxGeometry x="8" y="722" width="40" height="40" as="geometry"/>
                </mxCell>
                <mxCell id="KuFMbSMzIT9IbyiOjsOX-726" value="M" style="text;html=1;align=center;verticalAlign=middle;resizable=0;points=[];autosize=1;strokeColor=none;fillColor=none;fontSize=18;fontStyle=1" parent="1" vertex="1">
                    <mxGeometry x="46" y="793" width="40" height="40" as="geometry"/>
                </mxCell>
                <mxCell id="KuFMbSMzIT9IbyiOjsOX-727" value="M" style="text;html=1;align=center;verticalAlign=middle;resizable=0;points=[];autosize=1;strokeColor=none;fillColor=none;fontSize=18;fontStyle=1" parent="1" vertex="1">
                    <mxGeometry x="-108" y="836" width="40" height="40" as="geometry"/>
                </mxCell>
                <mxCell id="KuFMbSMzIT9IbyiOjsOX-728" value="M" style="text;html=1;align=center;verticalAlign=middle;resizable=0;points=[];autosize=1;strokeColor=none;fillColor=none;fontSize=18;fontStyle=1" parent="1" vertex="1">
                    <mxGeometry x="-145" y="798" width="40" height="40" as="geometry"/>
                </mxCell>
                <mxCell id="KuFMbSMzIT9IbyiOjsOX-729" style="edgeStyle=none;html=1;exitX=0.5;exitY=0;exitDx=0;exitDy=0;entryX=0.25;entryY=1;entryDx=0;entryDy=0;endArrow=none;endFill=0;shape=link;" parent="1" source="KuFMbSMzIT9IbyiOjsOX-731" edge="1">
                    <mxGeometry relative="1" as="geometry">
                        <mxPoint x="747.5" y="110" as="targetPoint"/>
                    </mxGeometry>
                </mxCell>
                <mxCell id="KuFMbSMzIT9IbyiOjsOX-730" style="edgeStyle=none;html=1;exitX=1;exitY=0.5;exitDx=0;exitDy=0;entryX=0;entryY=0.5;entryDx=0;entryDy=0;endArrow=none;endFill=0;" parent="1" source="KuFMbSMzIT9IbyiOjsOX-731" target="KuFMbSMzIT9IbyiOjsOX-678" edge="1">
                    <mxGeometry relative="1" as="geometry"/>
                </mxCell>
                <mxCell id="KuFMbSMzIT9IbyiOjsOX-731" value="&lt;b&gt;Has&lt;/b&gt;" style="rhombus;whiteSpace=wrap;html=1;fontSize=18;fillColor=#FF0000;" parent="1" vertex="1">
                    <mxGeometry x="705" y="390" width="85" height="85" as="geometry"/>
                </mxCell>
                <mxCell id="KuFMbSMzIT9IbyiOjsOX-732" value="&lt;font style=&quot;font-size: 18px;&quot;&gt;M&lt;/font&gt;" style="text;html=1;align=center;verticalAlign=middle;resizable=0;points=[];autosize=1;strokeColor=none;fillColor=none;fontStyle=1" parent="1" vertex="1">
                    <mxGeometry x="746" y="352" width="40" height="40" as="geometry"/>
                </mxCell>
                <mxCell id="KuFMbSMzIT9IbyiOjsOX-733" value="&lt;font style=&quot;font-size: 18px;&quot;&gt;M&lt;/font&gt;" style="text;html=1;align=center;verticalAlign=middle;resizable=0;points=[];autosize=1;strokeColor=none;fillColor=none;fontStyle=1" parent="1" vertex="1">
                    <mxGeometry x="781" y="394" width="40" height="40" as="geometry"/>
                </mxCell>
                <mxCell id="KuFMbSMzIT9IbyiOjsOX-734" style="edgeStyle=none;html=1;exitX=1;exitY=1;exitDx=0;exitDy=0;entryX=0;entryY=0.5;entryDx=0;entryDy=0;fontSize=18;endArrow=none;endFill=0;shape=link;" parent="1" source="KuFMbSMzIT9IbyiOjsOX-736" edge="1">
                    <mxGeometry relative="1" as="geometry">
                        <mxPoint x="950" y="182.5" as="targetPoint"/>
                    </mxGeometry>
                </mxCell>
                <mxCell id="KuFMbSMzIT9IbyiOjsOX-735" style="edgeStyle=none;html=1;exitX=0;exitY=0.5;exitDx=0;exitDy=0;entryX=1;entryY=0.5;entryDx=0;entryDy=0;fontSize=18;endArrow=none;endFill=0;" parent="1" source="KuFMbSMzIT9IbyiOjsOX-736" target="KuFMbSMzIT9IbyiOjsOX-754" edge="1">
                    <mxGeometry relative="1" as="geometry"/>
                </mxCell>
                <mxCell id="KuFMbSMzIT9IbyiOjsOX-736" value="&lt;b&gt;&lt;font style=&quot;font-size: 18px;&quot;&gt;Track&lt;/font&gt;&lt;/b&gt;" style="rounded=0;whiteSpace=wrap;html=1;fillColor=#FF9933;" parent="1" vertex="1">
                    <mxGeometry x="710" y="60" width="150" height="50" as="geometry"/>
                </mxCell>
                <mxCell id="KuFMbSMzIT9IbyiOjsOX-737" value="" style="endArrow=none;html=1;entryX=0.419;entryY=1.027;entryDx=0;entryDy=0;entryPerimeter=0;exitX=0.404;exitY=-0.022;exitDx=0;exitDy=0;exitPerimeter=0;startArrow=none;" parent="1" source="KuFMbSMzIT9IbyiOjsOX-756" edge="1">
                    <mxGeometry width="50" height="50" relative="1" as="geometry">
                        <mxPoint x="740" y="60" as="sourcePoint"/>
                        <mxPoint x="737.7099999999996" y="1.349999999999909" as="targetPoint"/>
                    </mxGeometry>
                </mxCell>
                <mxCell id="KuFMbSMzIT9IbyiOjsOX-738" value="" style="endArrow=none;html=1;exitX=0.5;exitY=0;exitDx=0;exitDy=0;" parent="1" source="KuFMbSMzIT9IbyiOjsOX-736" edge="1">
                    <mxGeometry width="50" height="50" relative="1" as="geometry">
                        <mxPoint x="780" y="50" as="sourcePoint"/>
                        <mxPoint x="816.546544120074" y="-1.1651617681034168" as="targetPoint"/>
                    </mxGeometry>
                </mxCell>
                <mxCell id="KuFMbSMzIT9IbyiOjsOX-739" value="Track_Name" style="ellipse;whiteSpace=wrap;html=1;" parent="1" vertex="1">
                    <mxGeometry x="790" y="-30" width="90" height="50" as="geometry"/>
                </mxCell>
                <mxCell id="KuFMbSMzIT9IbyiOjsOX-740" style="edgeStyle=none;html=1;exitX=0;exitY=1;exitDx=0;exitDy=0;entryX=1;entryY=0.5;entryDx=0;entryDy=0;fontSize=18;endArrow=none;endFill=0;" parent="1" source="KuFMbSMzIT9IbyiOjsOX-743" edge="1">
                    <mxGeometry relative="1" as="geometry">
                        <mxPoint x="1035" y="182.5" as="targetPoint"/>
                    </mxGeometry>
                </mxCell>
                <mxCell id="KuFMbSMzIT9IbyiOjsOX-741" style="edgeStyle=none;html=1;exitX=1;exitY=0.5;exitDx=0;exitDy=0;endArrow=none;endFill=0;" parent="1" source="KuFMbSMzIT9IbyiOjsOX-743" target="KuFMbSMzIT9IbyiOjsOX-794" edge="1">
                    <mxGeometry relative="1" as="geometry"/>
                </mxCell>
                <mxCell id="KuFMbSMzIT9IbyiOjsOX-742" style="edgeStyle=none;html=1;exitX=1;exitY=0.25;exitDx=0;exitDy=0;entryX=0;entryY=0.5;entryDx=0;entryDy=0;endArrow=none;endFill=0;" parent="1" source="KuFMbSMzIT9IbyiOjsOX-743" target="KuFMbSMzIT9IbyiOjsOX-796" edge="1">
                    <mxGeometry relative="1" as="geometry"/>
                </mxCell>
                <mxCell id="KuFMbSMzIT9IbyiOjsOX-743" value="&lt;b&gt;&lt;font style=&quot;font-size: 18px;&quot;&gt;Instructor&lt;/font&gt;&lt;/b&gt;" style="rounded=0;whiteSpace=wrap;html=1;fillColor=#FF9933;" parent="1" vertex="1">
                    <mxGeometry x="1170" y="40" width="145" height="50" as="geometry"/>
                </mxCell>
                <mxCell id="KuFMbSMzIT9IbyiOjsOX-744" value="&lt;u&gt;Ins_Id&lt;/u&gt;" style="ellipse;whiteSpace=wrap;html=1;" parent="1" vertex="1">
                    <mxGeometry x="1175" y="-70" width="90" height="50" as="geometry"/>
                </mxCell>
                <mxCell id="KuFMbSMzIT9IbyiOjsOX-745" value="" style="endArrow=none;html=1;entryX=0.419;entryY=1.027;entryDx=0;entryDy=0;entryPerimeter=0;exitX=0.404;exitY=-0.022;exitDx=0;exitDy=0;exitPerimeter=0;" parent="1" source="KuFMbSMzIT9IbyiOjsOX-743" target="KuFMbSMzIT9IbyiOjsOX-744" edge="1">
                    <mxGeometry width="50" height="50" relative="1" as="geometry">
                        <mxPoint x="1235" y="50" as="sourcePoint"/>
                        <mxPoint x="1285" as="targetPoint"/>
                    </mxGeometry>
                </mxCell>
                <mxCell id="KuFMbSMzIT9IbyiOjsOX-746" style="edgeStyle=none;html=1;exitX=1;exitY=1;exitDx=0;exitDy=0;entryX=0;entryY=0;entryDx=0;entryDy=0;endArrow=none;endFill=0;" parent="1" source="KuFMbSMzIT9IbyiOjsOX-747" target="KuFMbSMzIT9IbyiOjsOX-743" edge="1">
                    <mxGeometry relative="1" as="geometry"/>
                </mxCell>
                <mxCell id="KuFMbSMzIT9IbyiOjsOX-747" value="Salary" style="ellipse;whiteSpace=wrap;html=1;" parent="1" vertex="1">
                    <mxGeometry x="1070" y="-30" width="90" height="50" as="geometry"/>
                </mxCell>
                <mxCell id="KuFMbSMzIT9IbyiOjsOX-748" style="edgeStyle=none;html=1;exitX=0.5;exitY=1;exitDx=0;exitDy=0;entryX=0.25;entryY=0;entryDx=0;entryDy=0;endArrow=none;endFill=0;" parent="1" source="KuFMbSMzIT9IbyiOjsOX-749" target="KuFMbSMzIT9IbyiOjsOX-743" edge="1">
                    <mxGeometry relative="1" as="geometry"/>
                </mxCell>
                <mxCell id="KuFMbSMzIT9IbyiOjsOX-749" value="Ins_Age" style="ellipse;whiteSpace=wrap;html=1;dashed=1;" parent="1" vertex="1">
                    <mxGeometry x="1100" y="-93.9" width="80" height="40" as="geometry"/>
                </mxCell>
                <mxCell id="KuFMbSMzIT9IbyiOjsOX-750" style="edgeStyle=none;html=1;exitX=0.5;exitY=1;exitDx=0;exitDy=0;entryX=0.75;entryY=0;entryDx=0;entryDy=0;endArrow=none;endFill=0;" parent="1" source="KuFMbSMzIT9IbyiOjsOX-751" target="KuFMbSMzIT9IbyiOjsOX-743" edge="1">
                    <mxGeometry relative="1" as="geometry"/>
                </mxCell>
                <mxCell id="KuFMbSMzIT9IbyiOjsOX-751" value="Ins_Name" style="ellipse;whiteSpace=wrap;html=1;" parent="1" vertex="1">
                    <mxGeometry x="1356" y="-70" width="90" height="50" as="geometry"/>
                </mxCell>
                <mxCell id="KuFMbSMzIT9IbyiOjsOX-752" style="edgeStyle=none;html=1;exitX=0.5;exitY=1;exitDx=0;exitDy=0;endArrow=none;endFill=0;entryX=0.652;entryY=-0.064;entryDx=0;entryDy=0;entryPerimeter=0;" parent="1" source="KuFMbSMzIT9IbyiOjsOX-753" target="KuFMbSMzIT9IbyiOjsOX-743" edge="1">
                    <mxGeometry relative="1" as="geometry">
                        <mxPoint x="1270" y="30" as="targetPoint"/>
                    </mxGeometry>
                </mxCell>
                <mxCell id="KuFMbSMzIT9IbyiOjsOX-753" value="Ins_Phone" style="ellipse;whiteSpace=wrap;html=1;" parent="1" vertex="1">
                    <mxGeometry x="1265" y="-98.89999999999998" width="90" height="50" as="geometry"/>
                </mxCell>
                <mxCell id="KuFMbSMzIT9IbyiOjsOX-754" value="&lt;b&gt;&lt;font style=&quot;font-size: 18px;&quot;&gt;Has&lt;/font&gt;&lt;/b&gt;" style="rhombus;whiteSpace=wrap;html=1;fontSize=12;fillColor=#FF0000;" parent="1" vertex="1">
                    <mxGeometry x="410" y="45" width="80" height="80" as="geometry"/>
                </mxCell>
                <mxCell id="KuFMbSMzIT9IbyiOjsOX-755" value="" style="endArrow=none;html=1;entryX=0.419;entryY=1.027;entryDx=0;entryDy=0;entryPerimeter=0;exitX=0.404;exitY=-0.022;exitDx=0;exitDy=0;exitPerimeter=0;" parent="1" source="KuFMbSMzIT9IbyiOjsOX-736" target="KuFMbSMzIT9IbyiOjsOX-756" edge="1">
                    <mxGeometry width="50" height="50" relative="1" as="geometry">
                        <mxPoint x="770.5999999999999" y="58.899999999999864" as="sourcePoint"/>
                        <mxPoint x="737.7099999999996" y="1.3499999999996817" as="targetPoint"/>
                    </mxGeometry>
                </mxCell>
                <mxCell id="KuFMbSMzIT9IbyiOjsOX-756" value="&lt;u&gt;Track_Id&lt;/u&gt;" style="ellipse;whiteSpace=wrap;html=1;" parent="1" vertex="1">
                    <mxGeometry x="686" y="-30" width="90" height="50" as="geometry"/>
                </mxCell>
                <mxCell id="KuFMbSMzIT9IbyiOjsOX-757" value="&lt;b&gt;M&lt;/b&gt;" style="text;html=1;align=center;verticalAlign=middle;resizable=0;points=[];autosize=1;strokeColor=none;fillColor=none;fontSize=18;" parent="1" vertex="1">
                    <mxGeometry x="480" y="46" width="40" height="40" as="geometry"/>
                </mxCell>
                <mxCell id="KuFMbSMzIT9IbyiOjsOX-758" style="edgeStyle=none;html=1;exitX=0;exitY=0.5;exitDx=0;exitDy=0;entryX=1;entryY=0;entryDx=0;entryDy=0;endArrow=none;endFill=0;shape=link;" parent="1" source="KuFMbSMzIT9IbyiOjsOX-760" target="KuFMbSMzIT9IbyiOjsOX-736" edge="1">
                    <mxGeometry relative="1" as="geometry"/>
                </mxCell>
                <mxCell id="KuFMbSMzIT9IbyiOjsOX-759" style="edgeStyle=none;shape=link;html=1;exitX=1;exitY=0.5;exitDx=0;exitDy=0;entryX=0;entryY=0.5;entryDx=0;entryDy=0;endArrow=none;endFill=0;" parent="1" source="KuFMbSMzIT9IbyiOjsOX-760" target="KuFMbSMzIT9IbyiOjsOX-743" edge="1">
                    <mxGeometry relative="1" as="geometry"/>
                </mxCell>
                <mxCell id="KuFMbSMzIT9IbyiOjsOX-760" value="&lt;b&gt;Assgin&lt;/b&gt;" style="rhombus;whiteSpace=wrap;html=1;fontSize=18;fillColor=#FF0000;" parent="1" vertex="1">
                    <mxGeometry x="950" y="-30" width="85" height="85" as="geometry"/>
                </mxCell>
                <mxCell id="KuFMbSMzIT9IbyiOjsOX-761" value="&lt;font style=&quot;font-size: 18px;&quot;&gt;&lt;b&gt;M&lt;/b&gt;&lt;/font&gt;" style="text;html=1;align=center;verticalAlign=middle;resizable=0;points=[];autosize=1;strokeColor=none;fillColor=none;" parent="1" vertex="1">
                    <mxGeometry x="921" y="-25" width="40" height="40" as="geometry"/>
                </mxCell>
                <mxCell id="KuFMbSMzIT9IbyiOjsOX-762" value="&lt;font style=&quot;font-size: 18px;&quot;&gt;&lt;b&gt;M&lt;/b&gt;&lt;/font&gt;" style="text;html=1;align=center;verticalAlign=middle;resizable=0;points=[];autosize=1;strokeColor=none;fillColor=none;" parent="1" vertex="1">
                    <mxGeometry x="1018" y="-31" width="40" height="40" as="geometry"/>
                </mxCell>
                <mxCell id="KuFMbSMzIT9IbyiOjsOX-763" value="&lt;b&gt;1&lt;/b&gt;" style="text;html=1;align=center;verticalAlign=middle;resizable=0;points=[];autosize=1;strokeColor=none;fillColor=none;fontSize=18;" parent="1" vertex="1">
                    <mxGeometry x="1020" y="136" width="30" height="40" as="geometry"/>
                </mxCell>
                <mxCell id="KuFMbSMzIT9IbyiOjsOX-764" value="&lt;b&gt;1&lt;/b&gt;" style="text;html=1;align=center;verticalAlign=middle;resizable=0;points=[];autosize=1;strokeColor=none;fillColor=none;fontSize=18;" parent="1" vertex="1">
                    <mxGeometry x="933" y="132" width="30" height="40" as="geometry"/>
                </mxCell>
                <mxCell id="KuFMbSMzIT9IbyiOjsOX-765" value="&lt;b&gt;M&lt;/b&gt;" style="text;html=1;align=center;verticalAlign=middle;resizable=0;points=[];autosize=1;strokeColor=none;fillColor=none;fontSize=18;" parent="1" vertex="1">
                    <mxGeometry x="380" y="47" width="40" height="40" as="geometry"/>
                </mxCell>
                <mxCell id="KuFMbSMzIT9IbyiOjsOX-766" style="edgeStyle=none;html=1;exitX=0.5;exitY=0;exitDx=0;exitDy=0;entryX=0.639;entryY=1.02;entryDx=0;entryDy=0;entryPerimeter=0;fontSize=18;endArrow=none;endFill=0;" parent="1" target="KuFMbSMzIT9IbyiOjsOX-743" edge="1">
                    <mxGeometry relative="1" as="geometry">
                        <mxPoint x="1262.5" y="200" as="sourcePoint"/>
                    </mxGeometry>
                </mxCell>
                <mxCell id="KuFMbSMzIT9IbyiOjsOX-767" value="&lt;b&gt;M&lt;/b&gt;" style="text;html=1;align=center;verticalAlign=middle;resizable=0;points=[];autosize=1;strokeColor=none;fillColor=none;fontSize=18;" parent="1" vertex="1">
                    <mxGeometry x="1267" y="172" width="40" height="40" as="geometry"/>
                </mxCell>
                <mxCell id="KuFMbSMzIT9IbyiOjsOX-768" style="edgeStyle=none;shape=link;html=1;exitX=0;exitY=0.5;exitDx=0;exitDy=0;entryX=1;entryY=0.5;entryDx=0;entryDy=0;fontSize=18;endArrow=none;endFill=0;" parent="1" source="KuFMbSMzIT9IbyiOjsOX-770" target="KuFMbSMzIT9IbyiOjsOX-690" edge="1">
                    <mxGeometry relative="1" as="geometry"/>
                </mxCell>
                <mxCell id="KuFMbSMzIT9IbyiOjsOX-769" style="edgeStyle=none;html=1;exitX=0.5;exitY=0;exitDx=0;exitDy=0;entryX=0.75;entryY=1;entryDx=0;entryDy=0;fontSize=18;endArrow=none;endFill=0;" parent="1" source="KuFMbSMzIT9IbyiOjsOX-770" target="KuFMbSMzIT9IbyiOjsOX-678" edge="1">
                    <mxGeometry relative="1" as="geometry"/>
                </mxCell>
                <mxCell id="KuFMbSMzIT9IbyiOjsOX-770" value="&lt;b&gt;Has&lt;/b&gt;" style="rhombus;whiteSpace=wrap;html=1;fontSize=18;fillColor=#FF0000;" parent="1" vertex="1">
                    <mxGeometry x="1250" y="825" width="85" height="85" as="geometry"/>
                </mxCell>
                <mxCell id="KuFMbSMzIT9IbyiOjsOX-771" value="&lt;b&gt;1&lt;/b&gt;" style="text;html=1;align=center;verticalAlign=middle;resizable=0;points=[];autosize=1;strokeColor=none;fillColor=none;fontSize=18;fontStyle=0" parent="1" vertex="1">
                    <mxGeometry x="1293" y="792" width="30" height="40" as="geometry"/>
                </mxCell>
                <mxCell id="KuFMbSMzIT9IbyiOjsOX-772" value="M" style="text;html=1;align=center;verticalAlign=middle;resizable=0;points=[];autosize=1;strokeColor=none;fillColor=none;fontSize=18;fontStyle=1" parent="1" vertex="1">
                    <mxGeometry x="1218" y="829.5" width="40" height="40" as="geometry"/>
                </mxCell>
                <mxCell id="KuFMbSMzIT9IbyiOjsOX-773" style="edgeStyle=none;html=1;exitX=0.5;exitY=1;exitDx=0;exitDy=0;entryX=0.5;entryY=0;entryDx=0;entryDy=0;fontSize=18;endArrow=none;endFill=0;shape=link;" parent="1" source="KuFMbSMzIT9IbyiOjsOX-775" target="KuFMbSMzIT9IbyiOjsOX-683" edge="1">
                    <mxGeometry relative="1" as="geometry"/>
                </mxCell>
                <mxCell id="KuFMbSMzIT9IbyiOjsOX-774" style="edgeStyle=none;html=1;exitX=1;exitY=0;exitDx=0;exitDy=0;entryX=0.25;entryY=1;entryDx=0;entryDy=0;fontSize=18;endArrow=none;endFill=0;shape=link;" parent="1" source="KuFMbSMzIT9IbyiOjsOX-775" target="KuFMbSMzIT9IbyiOjsOX-678" edge="1">
                    <mxGeometry relative="1" as="geometry"/>
                </mxCell>
                <mxCell id="KuFMbSMzIT9IbyiOjsOX-775" value="&lt;b&gt;Include&lt;/b&gt;" style="rhombus;whiteSpace=wrap;html=1;fontSize=18;fillColor=#FF0000;" parent="1" vertex="1">
                    <mxGeometry x="1080" y="508" width="85" height="85" as="geometry"/>
                </mxCell>
                <mxCell id="KuFMbSMzIT9IbyiOjsOX-776" value="&lt;b&gt;1&lt;/b&gt;" style="text;html=1;align=center;verticalAlign=middle;resizable=0;points=[];autosize=1;strokeColor=none;fillColor=none;fontSize=18;fontStyle=0" parent="1" vertex="1">
                    <mxGeometry x="1089" y="583" width="30" height="40" as="geometry"/>
                </mxCell>
                <mxCell id="KuFMbSMzIT9IbyiOjsOX-777" value="M" style="text;html=1;align=center;verticalAlign=middle;resizable=0;points=[];autosize=1;strokeColor=none;fillColor=none;fontSize=18;fontStyle=1" parent="1" vertex="1">
                    <mxGeometry x="1124" y="481.18" width="40" height="40" as="geometry"/>
                </mxCell>
                <mxCell id="KuFMbSMzIT9IbyiOjsOX-778" style="edgeStyle=none;shape=link;html=1;exitX=0;exitY=0.5;exitDx=0;exitDy=0;entryX=1;entryY=0.5;entryDx=0;entryDy=0;fontSize=18;endArrow=none;endFill=0;" parent="1" source="KuFMbSMzIT9IbyiOjsOX-780" target="KuFMbSMzIT9IbyiOjsOX-700" edge="1">
                    <mxGeometry relative="1" as="geometry"/>
                </mxCell>
                <mxCell id="KuFMbSMzIT9IbyiOjsOX-779" style="edgeStyle=none;shape=link;html=1;exitX=0.5;exitY=0;exitDx=0;exitDy=0;entryX=0.5;entryY=1;entryDx=0;entryDy=0;fontSize=18;endArrow=none;endFill=0;" parent="1" source="KuFMbSMzIT9IbyiOjsOX-780" target="KuFMbSMzIT9IbyiOjsOX-678" edge="1">
                    <mxGeometry relative="1" as="geometry"/>
                </mxCell>
                <mxCell id="KuFMbSMzIT9IbyiOjsOX-780" value="&lt;b&gt;Has&lt;/b&gt;" style="rhombus;whiteSpace=wrap;html=1;fontSize=18;fillColor=#FF0000;" parent="1" vertex="1">
                    <mxGeometry x="1396" y="940" width="85" height="85" as="geometry"/>
                </mxCell>
                <mxCell id="KuFMbSMzIT9IbyiOjsOX-781" value="&lt;b&gt;1&lt;/b&gt;" style="text;html=1;align=center;verticalAlign=middle;resizable=0;points=[];autosize=1;strokeColor=none;fillColor=none;fontSize=18;fontStyle=0" parent="1" vertex="1">
                    <mxGeometry x="1441" y="905" width="30" height="40" as="geometry"/>
                </mxCell>
                <mxCell id="KuFMbSMzIT9IbyiOjsOX-782" value="M" style="text;html=1;align=center;verticalAlign=middle;resizable=0;points=[];autosize=1;strokeColor=none;fillColor=none;fontSize=18;fontStyle=1" parent="1" vertex="1">
                    <mxGeometry x="1356" y="945" width="40" height="40" as="geometry"/>
                </mxCell>
                <mxCell id="KuFMbSMzIT9IbyiOjsOX-783" style="edgeStyle=none;html=1;exitX=0;exitY=1;exitDx=0;exitDy=0;fontSize=18;endArrow=none;endFill=0;" parent="1" source="KuFMbSMzIT9IbyiOjsOX-784" edge="1">
                    <mxGeometry relative="1" as="geometry">
                        <mxPoint x="20" y="1070" as="targetPoint"/>
                    </mxGeometry>
                </mxCell>
                <mxCell id="KuFMbSMzIT9IbyiOjsOX-784" value="&lt;b style=&quot;border-color: var(--border-color);&quot;&gt;Has&lt;/b&gt;" style="rhombus;whiteSpace=wrap;html=1;fontSize=18;fillColor=#FF0000;" parent="1" vertex="1">
                    <mxGeometry x="230" y="910" width="85" height="85" as="geometry"/>
                </mxCell>
                <mxCell id="KuFMbSMzIT9IbyiOjsOX-785" value="M" style="text;html=1;align=center;verticalAlign=middle;resizable=0;points=[];autosize=1;strokeColor=none;fillColor=none;fontSize=18;fontStyle=1" parent="1" vertex="1">
                    <mxGeometry x="199" y="952" width="40" height="40" as="geometry"/>
                </mxCell>
                <mxCell id="KuFMbSMzIT9IbyiOjsOX-786" value="M" style="text;html=1;align=center;verticalAlign=middle;resizable=0;points=[];autosize=1;strokeColor=none;fillColor=none;fontSize=18;fontStyle=1" parent="1" vertex="1">
                    <mxGeometry x="300" y="900" width="40" height="40" as="geometry"/>
                </mxCell>
                <mxCell id="KuFMbSMzIT9IbyiOjsOX-787" style="edgeStyle=none;html=1;exitX=0;exitY=0.5;exitDx=0;exitDy=0;entryX=0.5;entryY=1;entryDx=0;entryDy=0;endArrow=none;endFill=0;" parent="1" source="KuFMbSMzIT9IbyiOjsOX-790" target="KuFMbSMzIT9IbyiOjsOX-660" edge="1">
                    <mxGeometry relative="1" as="geometry"/>
                </mxCell>
                <mxCell id="KuFMbSMzIT9IbyiOjsOX-788" style="edgeStyle=none;html=1;exitX=0.5;exitY=1;exitDx=0;exitDy=0;entryX=1;entryY=0;entryDx=0;entryDy=0;endArrow=none;endFill=0;shape=link;" parent="1" source="KuFMbSMzIT9IbyiOjsOX-790" target="KuFMbSMzIT9IbyiOjsOX-700" edge="1">
                    <mxGeometry relative="1" as="geometry"/>
                </mxCell>
                <mxCell id="KuFMbSMzIT9IbyiOjsOX-789" style="edgeStyle=none;html=1;exitX=1;exitY=0.5;exitDx=0;exitDy=0;entryX=0;entryY=0.25;entryDx=0;entryDy=0;endArrow=none;endFill=0;shape=link;" parent="1" source="KuFMbSMzIT9IbyiOjsOX-790" target="KuFMbSMzIT9IbyiOjsOX-690" edge="1">
                    <mxGeometry relative="1" as="geometry"/>
                </mxCell>
                <mxCell id="KuFMbSMzIT9IbyiOjsOX-790" value="&lt;span style=&quot;font-size: 18px;&quot;&gt;&lt;b&gt;Take&lt;/b&gt;&lt;/span&gt;" style="rhombus;whiteSpace=wrap;html=1;fontSize=12;fillColor=#FF0000;" parent="1" vertex="1">
                    <mxGeometry x="140" y="531.1" width="90" height="80" as="geometry"/>
                </mxCell>
                <mxCell id="KuFMbSMzIT9IbyiOjsOX-791" value="&lt;font style=&quot;font-size: 18px;&quot;&gt;M&lt;/font&gt;" style="text;html=1;align=center;verticalAlign=middle;resizable=0;points=[];autosize=1;strokeColor=none;fillColor=none;fontStyle=1" parent="1" vertex="1">
                    <mxGeometry x="120" y="520" width="40" height="40" as="geometry"/>
                </mxCell>
                <mxCell id="KuFMbSMzIT9IbyiOjsOX-792" value="&lt;font style=&quot;font-size: 18px;&quot;&gt;M&lt;/font&gt;" style="text;html=1;align=center;verticalAlign=middle;resizable=0;points=[];autosize=1;strokeColor=none;fillColor=none;fontStyle=1" parent="1" vertex="1">
                    <mxGeometry x="140" y="593" width="40" height="40" as="geometry"/>
                </mxCell>
                <mxCell id="KuFMbSMzIT9IbyiOjsOX-793" value="&lt;font style=&quot;font-size: 18px;&quot;&gt;M&lt;/font&gt;" style="text;html=1;align=center;verticalAlign=middle;resizable=0;points=[];autosize=1;strokeColor=none;fillColor=none;fontStyle=1" parent="1" vertex="1">
                    <mxGeometry x="220" y="593" width="40" height="40" as="geometry"/>
                </mxCell>
                <mxCell id="KuFMbSMzIT9IbyiOjsOX-794" value="Password" style="ellipse;whiteSpace=wrap;html=1;" parent="1" vertex="1">
                    <mxGeometry x="1355" y="45" width="90" height="50" as="geometry"/>
                </mxCell>
                <mxCell id="KuFMbSMzIT9IbyiOjsOX-795" value="Password" style="ellipse;whiteSpace=wrap;html=1;" parent="1" vertex="1">
                    <mxGeometry x="-250" y="390" width="90" height="50" as="geometry"/>
                </mxCell>
                <mxCell id="KuFMbSMzIT9IbyiOjsOX-796" value="st_email" style="ellipse;whiteSpace=wrap;html=1;" parent="1" vertex="1">
                    <mxGeometry x="1430" y="-19.999999999999886" width="90" height="50" as="geometry"/>
                </mxCell>
                <mxCell id="KuFMbSMzIT9IbyiOjsOX-797" value="&lt;font style=&quot;font-size: 18px;&quot;&gt;&lt;b&gt;Admin&lt;/b&gt;&lt;/font&gt;" style="rounded=0;whiteSpace=wrap;html=1;fillColor=#FF9933;" parent="1" vertex="1">
                    <mxGeometry x="435" y="395.18000000000006" width="130" height="50" as="geometry"/>
                </mxCell>
                <mxCell id="KuFMbSMzIT9IbyiOjsOX-798" value="email" style="ellipse;whiteSpace=wrap;html=1;" parent="1" vertex="1">
                    <mxGeometry x="520" y="296.2800000000001" width="90" height="50" as="geometry"/>
                </mxCell>
                <mxCell id="KuFMbSMzIT9IbyiOjsOX-800" value="password" style="ellipse;whiteSpace=wrap;html=1;" parent="1" vertex="1">
                    <mxGeometry x="610" y="320.00000000000006" width="90" height="50" as="geometry"/>
                </mxCell>
                <mxCell id="KuFMbSMzIT9IbyiOjsOX-799" value="id" style="ellipse;whiteSpace=wrap;html=1;" parent="1" vertex="1">
                    <mxGeometry x="322" y="313.00000000000006" width="90" height="50" as="geometry"/>
                </mxCell>
                <mxCell id="KuFMbSMzIT9IbyiOjsOX-801" value="" style="endArrow=none;html=1;entryX=0.25;entryY=0;entryDx=0;entryDy=0;exitX=1;exitY=1;exitDx=0;exitDy=0;" parent="1" source="KuFMbSMzIT9IbyiOjsOX-799" target="KuFMbSMzIT9IbyiOjsOX-797" edge="1">
                    <mxGeometry width="50" height="50" relative="1" as="geometry">
                        <mxPoint x="400" y="419" as="sourcePoint"/>
                        <mxPoint x="450" y="361.67999999999995" as="targetPoint"/>
                    </mxGeometry>
                </mxCell>
                <mxCell id="KuFMbSMzIT9IbyiOjsOX-802" value="" style="endArrow=none;html=1;exitX=0.5;exitY=1;exitDx=0;exitDy=0;entryX=0.5;entryY=0;entryDx=0;entryDy=0;" parent="1" source="KuFMbSMzIT9IbyiOjsOX-798" target="KuFMbSMzIT9IbyiOjsOX-797" edge="1">
                    <mxGeometry width="50" height="50" relative="1" as="geometry">
                        <mxPoint x="437.5" y="360.2800000000002" as="sourcePoint"/>
                        <mxPoint x="485" y="389" as="targetPoint"/>
                    </mxGeometry>
                </mxCell>
                <mxCell id="KuFMbSMzIT9IbyiOjsOX-803" value="" style="endArrow=none;html=1;exitX=0;exitY=1;exitDx=0;exitDy=0;entryX=0.62;entryY=-0.013;entryDx=0;entryDy=0;entryPerimeter=0;" parent="1" source="KuFMbSMzIT9IbyiOjsOX-800" target="KuFMbSMzIT9IbyiOjsOX-797" edge="1">
                    <mxGeometry width="50" height="50" relative="1" as="geometry">
                        <mxPoint x="504" y="360.2800000000002" as="sourcePoint"/>
                        <mxPoint x="581.5" y="384.1800000000003" as="targetPoint"/>
                    </mxGeometry>
                </mxCell>
                <mxCell id="KuFMbSMzIT9IbyiOjsOX-804" value="&lt;b&gt;Manage&lt;/b&gt;" style="rhombus;whiteSpace=wrap;html=1;fontSize=18;fillColor=#FF0000;" parent="1" vertex="1">
                    <mxGeometry x="890" y="255.18" width="85" height="85" as="geometry"/>
                </mxCell>
                <mxCell id="KuFMbSMzIT9IbyiOjsOX-805" value="&lt;b&gt;Manage&lt;/b&gt;" style="rhombus;whiteSpace=wrap;html=1;fontSize=18;fillColor=#FF0000;" parent="1" vertex="1">
                    <mxGeometry x="260" y="445.18" width="85" height="85" as="geometry"/>
                </mxCell>
                <mxCell id="KuFMbSMzIT9IbyiOjsOX-806" value="&lt;b&gt;1&lt;/b&gt;" style="text;html=1;align=center;verticalAlign=middle;resizable=0;points=[];autosize=1;strokeColor=none;fillColor=none;fontSize=18;" parent="1" vertex="1">
                    <mxGeometry x="864" y="260.18" width="30" height="40" as="geometry"/>
                </mxCell>
                <mxCell id="KuFMbSMzIT9IbyiOjsOX-807" value="&lt;b&gt;M&lt;/b&gt;" style="text;html=1;align=center;verticalAlign=middle;resizable=0;points=[];autosize=1;strokeColor=none;fillColor=none;fontSize=18;" parent="1" vertex="1">
                    <mxGeometry x="955" y="245" width="40" height="40" as="geometry"/>
                </mxCell>
                <mxCell id="KuFMbSMzIT9IbyiOjsOX-808" value="&lt;b&gt;1&lt;/b&gt;" style="text;html=1;align=center;verticalAlign=middle;resizable=0;points=[];autosize=1;strokeColor=none;fillColor=none;fontSize=18;" parent="1" vertex="1">
                    <mxGeometry x="330" y="435" width="30" height="40" as="geometry"/>
                </mxCell>
                <mxCell id="KuFMbSMzIT9IbyiOjsOX-809" value="&lt;b&gt;M&lt;/b&gt;" style="text;html=1;align=center;verticalAlign=middle;resizable=0;points=[];autosize=1;strokeColor=none;fillColor=none;fontSize=18;" parent="1" vertex="1">
                    <mxGeometry x="234" y="444.18" width="40" height="40" as="geometry"/>
                </mxCell>
                <mxCell id="KuFMbSMzIT9IbyiOjsOX-814" style="edgeStyle=none;shape=link;html=1;exitX=1;exitY=0.5;exitDx=0;exitDy=0;entryX=0.5;entryY=1;entryDx=0;entryDy=0;endArrow=none;endFill=0;" parent="1" source="KuFMbSMzIT9IbyiOjsOX-804" target="KuFMbSMzIT9IbyiOjsOX-743" edge="1">
                    <mxGeometry relative="1" as="geometry">
                        <mxPoint x="1045" y="22.499999999999773" as="sourcePoint"/>
                        <mxPoint x="1180" y="74.99999999999977" as="targetPoint"/>
                    </mxGeometry>
                </mxCell>
                <mxCell id="KuFMbSMzIT9IbyiOjsOX-815" style="edgeStyle=none;shape=link;html=1;exitX=0;exitY=0.5;exitDx=0;exitDy=0;endArrow=none;endFill=0;entryX=1;entryY=0.5;entryDx=0;entryDy=0;" parent="1" source="KuFMbSMzIT9IbyiOjsOX-804" target="KuFMbSMzIT9IbyiOjsOX-797" edge="1">
                    <mxGeometry relative="1" as="geometry">
                        <mxPoint x="985" y="307.6800000000003" as="sourcePoint"/>
                        <mxPoint x="650" y="240" as="targetPoint"/>
                    </mxGeometry>
                </mxCell>
                <mxCell id="KuFMbSMzIT9IbyiOjsOX-816" style="edgeStyle=none;shape=link;html=1;exitX=1;exitY=0.5;exitDx=0;exitDy=0;endArrow=none;endFill=0;entryX=0;entryY=0.5;entryDx=0;entryDy=0;" parent="1" source="KuFMbSMzIT9IbyiOjsOX-805" target="KuFMbSMzIT9IbyiOjsOX-797" edge="1">
                    <mxGeometry relative="1" as="geometry">
                        <mxPoint x="900" y="307.6800000000003" as="sourcePoint"/>
                        <mxPoint x="565" y="429.1800000000003" as="targetPoint"/>
                    </mxGeometry>
                </mxCell>
                <mxCell id="KuFMbSMzIT9IbyiOjsOX-817" style="edgeStyle=none;shape=link;html=1;exitX=0;exitY=0.5;exitDx=0;exitDy=0;endArrow=none;endFill=0;entryX=1;entryY=0.5;entryDx=0;entryDy=0;" parent="1" source="KuFMbSMzIT9IbyiOjsOX-805" target="KuFMbSMzIT9IbyiOjsOX-660" edge="1">
                    <mxGeometry relative="1" as="geometry">
                        <mxPoint x="355" y="497.67999999999984" as="sourcePoint"/>
                        <mxPoint x="435" y="429.1800000000003" as="targetPoint"/>
                    </mxGeometry>
                </mxCell>
                <mxCell id="KuFMbSMzIT9IbyiOjsOX-818" value="name" style="ellipse;whiteSpace=wrap;html=1;" parent="1" vertex="1">
                    <mxGeometry x="420" y="296.2800000000001" width="90" height="50" as="geometry"/>
                </mxCell>
                <mxCell id="KuFMbSMzIT9IbyiOjsOX-819" value="" style="endArrow=none;html=1;exitX=0.5;exitY=1;exitDx=0;exitDy=0;entryX=0.363;entryY=-0.093;entryDx=0;entryDy=0;entryPerimeter=0;" parent="1" source="KuFMbSMzIT9IbyiOjsOX-818" target="KuFMbSMzIT9IbyiOjsOX-797" edge="1">
                    <mxGeometry width="50" height="50" relative="1" as="geometry">
                        <mxPoint x="575" y="356.2800000000004" as="sourcePoint"/>
                        <mxPoint x="510" y="405.18000000000006" as="targetPoint"/>
                    </mxGeometry>
                </mxCell>
                <mxCell id="KuFMbSMzIT9IbyiOjsOX-820" value="Grade" style="ellipse;whiteSpace=wrap;html=1;" parent="1" vertex="1">
                    <mxGeometry x="-290" y="767.5" width="90" height="52.5" as="geometry"/>
                </mxCell>
                <mxCell id="KuFMbSMzIT9IbyiOjsOX-821" value="" style="endArrow=none;html=1;entryX=1;entryY=1;entryDx=0;entryDy=0;exitX=0;exitY=0;exitDx=0;exitDy=0;" parent="1" source="KuFMbSMzIT9IbyiOjsOX-724" target="KuFMbSMzIT9IbyiOjsOX-820" edge="1">
                    <mxGeometry width="50" height="50" relative="1" as="geometry">
                        <mxPoint x="-104" y="833" as="sourcePoint"/>
                        <mxPoint x="-250" y="830" as="targetPoint"/>
                    </mxGeometry>
                </mxCell>
                <mxCell id="KuFMbSMzIT9IbyiOjsOX-825" value="" style="endArrow=none;html=1;rounded=0;" parent="1" edge="1">
                    <mxGeometry width="50" height="50" relative="1" as="geometry">
                        <mxPoint x="240" y="570" as="sourcePoint"/>
                        <mxPoint x="290" y="520" as="targetPoint"/>
                    </mxGeometry>
                </mxCell>
                <mxCell id="KuFMbSMzIT9IbyiOjsOX-826" value="Answer" style="ellipse;whiteSpace=wrap;html=1;" parent="1" vertex="1">
                    <mxGeometry x="20" y="577.5" width="90" height="52.5" as="geometry"/>
                </mxCell>
                <mxCell id="KuFMbSMzIT9IbyiOjsOX-828" value="" style="endArrow=none;html=1;rounded=0;" parent="1" edge="1">
                    <mxGeometry width="50" height="50" relative="1" as="geometry">
                        <mxPoint x="240" y="570" as="sourcePoint"/>
                        <mxPoint x="290" y="520" as="targetPoint"/>
                    </mxGeometry>
                </mxCell>
                <mxCell id="KuFMbSMzIT9IbyiOjsOX-830" value="" style="endArrow=none;html=1;entryX=1;entryY=0.5;entryDx=0;entryDy=0;exitX=0;exitY=1;exitDx=0;exitDy=0;" parent="1" source="KuFMbSMzIT9IbyiOjsOX-790" target="KuFMbSMzIT9IbyiOjsOX-826" edge="1">
                    <mxGeometry width="50" height="50" relative="1" as="geometry">
                        <mxPoint x="165" y="585" as="sourcePoint"/>
                        <mxPoint x="19" y="582" as="targetPoint"/>
                    </mxGeometry>
                </mxCell>
                <mxCell id="ouVnCRUU9fuZ-RV7Fy0K-1" value="&lt;b&gt;Manage&lt;/b&gt;" style="rhombus;whiteSpace=wrap;html=1;fontSize=18;fillColor=#FF0000;" parent="1" vertex="1">
                    <mxGeometry x="530" y="509.36" width="85" height="85" as="geometry"/>
                </mxCell>
                <mxCell id="ouVnCRUU9fuZ-RV7Fy0K-2" style="edgeStyle=none;shape=link;html=1;exitX=1;exitY=0.5;exitDx=0;exitDy=0;endArrow=none;endFill=0;entryX=0;entryY=0.75;entryDx=0;entryDy=0;" parent="1" source="ouVnCRUU9fuZ-RV7Fy0K-1" target="KuFMbSMzIT9IbyiOjsOX-678" edge="1">
                    <mxGeometry relative="1" as="geometry">
                        <mxPoint x="1170" y="371.8600000000003" as="sourcePoint"/>
                        <mxPoint x="705" y="484.18" as="targetPoint"/>
                    </mxGeometry>
                </mxCell>
                <mxCell id="ouVnCRUU9fuZ-RV7Fy0K-3" style="edgeStyle=none;shape=link;html=1;exitX=0;exitY=0.5;exitDx=0;exitDy=0;endArrow=none;endFill=0;entryX=0.5;entryY=1;entryDx=0;entryDy=0;" parent="1" source="ouVnCRUU9fuZ-RV7Fy0K-1" target="KuFMbSMzIT9IbyiOjsOX-797" edge="1">
                    <mxGeometry relative="1" as="geometry">
                        <mxPoint x="625" y="561.8599999999998" as="sourcePoint"/>
                        <mxPoint x="455" y="552.26" as="targetPoint"/>
                    </mxGeometry>
                </mxCell>
                <mxCell id="ouVnCRUU9fuZ-RV7Fy0K-4" value="&lt;b&gt;1&lt;/b&gt;" style="text;html=1;align=center;verticalAlign=middle;resizable=0;points=[];autosize=1;strokeColor=none;fillColor=none;fontSize=18;" parent="1" vertex="1">
                    <mxGeometry x="522" y="497.18" width="30" height="40" as="geometry"/>
                </mxCell>
                <mxCell id="ouVnCRUU9fuZ-RV7Fy0K-5" value="&lt;b&gt;M&lt;/b&gt;" style="text;html=1;align=center;verticalAlign=middle;resizable=0;points=[];autosize=1;strokeColor=none;fillColor=none;fontSize=18;" parent="1" vertex="1">
                    <mxGeometry x="601" y="509" width="40" height="40" as="geometry"/>
                </mxCell>
                <mxCell id="ouVnCRUU9fuZ-RV7Fy0K-6" value="&lt;b&gt;Manage&lt;/b&gt;" style="rhombus;whiteSpace=wrap;html=1;fontSize=18;fillColor=#FF0000;" parent="1" vertex="1">
                    <mxGeometry x="-240" y="85" width="85" height="85" as="geometry"/>
                </mxCell>
                <mxCell id="ouVnCRUU9fuZ-RV7Fy0K-8" style="edgeStyle=none;shape=link;html=1;endArrow=none;endFill=0;entryX=0;entryY=0.5;entryDx=0;entryDy=0;exitX=1;exitY=0;exitDx=0;exitDy=0;" parent="1" source="ouVnCRUU9fuZ-RV7Fy0K-6" target="KuFMbSMzIT9IbyiOjsOX-649" edge="1">
                    <mxGeometry relative="1" as="geometry">
                        <mxPoint x="-150" y="120" as="sourcePoint"/>
                        <mxPoint x="-131" y="70" as="targetPoint"/>
                    </mxGeometry>
                </mxCell>
                <mxCell id="ouVnCRUU9fuZ-RV7Fy0K-9" value="&lt;b&gt;1&lt;/b&gt;" style="text;html=1;align=center;verticalAlign=middle;resizable=0;points=[];autosize=1;strokeColor=none;fillColor=none;fontSize=18;" parent="1" vertex="1">
                    <mxGeometry x="-155" y="120" width="30" height="40" as="geometry"/>
                </mxCell>
                <mxCell id="ouVnCRUU9fuZ-RV7Fy0K-10" value="&lt;b&gt;M&lt;/b&gt;" style="text;html=1;align=center;verticalAlign=middle;resizable=0;points=[];autosize=1;strokeColor=none;fillColor=none;fontSize=18;" parent="1" vertex="1">
                    <mxGeometry x="-180" y="65" width="40" height="40" as="geometry"/>
                </mxCell>
                <mxCell id="ouVnCRUU9fuZ-RV7Fy0K-11" value="&lt;b&gt;Manage&lt;/b&gt;" style="rhombus;whiteSpace=wrap;html=1;fontSize=18;fillColor=#FF0000;" parent="1" vertex="1">
                    <mxGeometry x="580" y="185" width="85" height="85" as="geometry"/>
                </mxCell>
                <mxCell id="ouVnCRUU9fuZ-RV7Fy0K-12" style="edgeStyle=none;shape=link;html=1;exitX=1;exitY=0;exitDx=0;exitDy=0;endArrow=none;endFill=0;entryX=0.25;entryY=1;entryDx=0;entryDy=0;" parent="1" source="ouVnCRUU9fuZ-RV7Fy0K-11" target="KuFMbSMzIT9IbyiOjsOX-736" edge="1">
                    <mxGeometry relative="1" as="geometry">
                        <mxPoint x="1220" y="47.500000000000284" as="sourcePoint"/>
                        <mxPoint x="1234" y="118.63999999999999" as="targetPoint"/>
                    </mxGeometry>
                </mxCell>
                <mxCell id="ouVnCRUU9fuZ-RV7Fy0K-16" value="&lt;b&gt;1&lt;/b&gt;" style="text;html=1;align=center;verticalAlign=middle;resizable=0;points=[];autosize=1;strokeColor=none;fillColor=none;fontSize=18;" parent="1" vertex="1">
                    <mxGeometry x="561" y="231" width="30" height="40" as="geometry"/>
                </mxCell>
                <mxCell id="ouVnCRUU9fuZ-RV7Fy0K-17" value="&lt;b&gt;M&lt;/b&gt;" style="text;html=1;align=center;verticalAlign=middle;resizable=0;points=[];autosize=1;strokeColor=none;fillColor=none;fontSize=18;" parent="1" vertex="1">
                    <mxGeometry x="625" y="156.18" width="40" height="40" as="geometry"/>
                </mxCell>
                <mxCell id="_H62l6fUasQwClMaTk8V-1" value="choices" style="ellipse;whiteSpace=wrap;html=1;" parent="1" vertex="1">
                    <mxGeometry x="-290" y="890" width="90" height="50" as="geometry"/>
                </mxCell>
                <mxCell id="_H62l6fUasQwClMaTk8V-14" value="choice 4" style="ellipse;whiteSpace=wrap;html=1;" parent="1" vertex="1">
                    <mxGeometry x="-390" y="825" width="71" height="50" as="geometry"/>
                </mxCell>
                <mxCell id="_H62l6fUasQwClMaTk8V-16" value="" style="endArrow=none;html=1;rounded=0;exitX=0.318;exitY=0.093;exitDx=0;exitDy=0;exitPerimeter=0;" parent="1" source="KuFMbSMzIT9IbyiOjsOX-703" edge="1">
                    <mxGeometry width="50" height="50" relative="1" as="geometry">
                        <mxPoint x="-40" y="1160" as="sourcePoint"/>
                        <mxPoint x="10" y="1110" as="targetPoint"/>
                    </mxGeometry>
                </mxCell>
                <mxCell id="_H62l6fUasQwClMaTk8V-18" value="choice 3" style="ellipse;whiteSpace=wrap;html=1;" parent="1" vertex="1">
                    <mxGeometry x="-457" y="875" width="65" height="45" as="geometry"/>
                </mxCell>
                <mxCell id="_H62l6fUasQwClMaTk8V-19" value="choice 2" style="ellipse;whiteSpace=wrap;html=1;" parent="1" vertex="1">
                    <mxGeometry x="-450" y="932.5" width="80" height="40" as="geometry"/>
                </mxCell>
                <mxCell id="_H62l6fUasQwClMaTk8V-20" value="choice 1" style="ellipse;whiteSpace=wrap;html=1;" parent="1" vertex="1">
                    <mxGeometry x="-390" y="980" width="70" height="45" as="geometry"/>
                </mxCell>
                <mxCell id="_H62l6fUasQwClMaTk8V-22" value="" style="endArrow=none;html=1;rounded=0;entryX=0.999;entryY=0.682;entryDx=0;entryDy=0;entryPerimeter=0;exitX=0;exitY=0;exitDx=0;exitDy=0;" parent="1" source="_H62l6fUasQwClMaTk8V-1" target="_H62l6fUasQwClMaTk8V-14" edge="1">
                    <mxGeometry width="50" height="50" relative="1" as="geometry">
                        <mxPoint x="-320" y="900" as="sourcePoint"/>
                        <mxPoint x="-270" y="850" as="targetPoint"/>
                    </mxGeometry>
                </mxCell>
                <mxCell id="_H62l6fUasQwClMaTk8V-25" value="" style="endArrow=none;html=1;rounded=0;entryX=0;entryY=0.5;entryDx=0;entryDy=0;" parent="1" target="_H62l6fUasQwClMaTk8V-1" edge="1">
                    <mxGeometry width="50" height="50" relative="1" as="geometry">
                        <mxPoint x="-390" y="900" as="sourcePoint"/>
                        <mxPoint x="-310" y="880" as="targetPoint"/>
                    </mxGeometry>
                </mxCell>
                <mxCell id="_H62l6fUasQwClMaTk8V-26" value="" style="endArrow=none;html=1;rounded=0;exitX=1;exitY=0.5;exitDx=0;exitDy=0;" parent="1" source="_H62l6fUasQwClMaTk8V-19" edge="1">
                    <mxGeometry width="50" height="50" relative="1" as="geometry">
                        <mxPoint x="-340" y="970" as="sourcePoint"/>
                        <mxPoint x="-290" y="920" as="targetPoint"/>
                    </mxGeometry>
                </mxCell>
                <mxCell id="_H62l6fUasQwClMaTk8V-27" value="" style="endArrow=none;html=1;rounded=0;exitX=1;exitY=0;exitDx=0;exitDy=0;" parent="1" source="_H62l6fUasQwClMaTk8V-20" target="_H62l6fUasQwClMaTk8V-1" edge="1">
                    <mxGeometry width="50" height="50" relative="1" as="geometry">
                        <mxPoint x="-320" y="990" as="sourcePoint"/>
                        <mxPoint x="-270" y="940" as="targetPoint"/>
                    </mxGeometry>
                </mxCell>
                <mxCell id="2" value="" style="endArrow=none;html=1;" parent="1" target="KuFMbSMzIT9IbyiOjsOX-687" edge="1">
                    <mxGeometry width="50" height="50" relative="1" as="geometry">
                        <mxPoint x="1145" y="661.0999999999999" as="sourcePoint"/>
                        <mxPoint x="1181.546544120074" y="609.9348382318967" as="targetPoint"/>
                    </mxGeometry>
                </mxCell>
                <mxCell id="KuFMbSMzIT9IbyiOjsOX-687" value="Topic_Name" style="ellipse;whiteSpace=wrap;html=1;" parent="1" vertex="1">
                    <mxGeometry x="1143" y="590" width="90" height="50" as="geometry"/>
                </mxCell>
            </root>
        </mxGraphModel>
    </diagram>
</mxfile>